<?xml version="1.0" standalone="no"?><svg xmlns="http://www.w3.org/2000/svg" viewBox="0 0 1440 320"><path fill="#273036" fill-opacity="1" d="M0,288L26.7,240C53.3,192,107,96,160,101.3C213.3,107,267,213,320,266.7C373.3,320,427,320,480,282.7C533.3,245,587,171,640,154.7C693.3,139,747,181,800,213.3C853.3,245,907,267,960,245.3C1013.3,224,1067,160,1120,160C1173.3,160,1227,224,1280,245.3C1333.3,267,1387,245,1413,234.7L1440,224L1440,320L1413.3,320C1386.7,320,1333,320,1280,320C1226.7,320,1173,320,1120,320C1066.7,320,1013,320,960,320C906.7,320,853,320,800,320C746.7,320,693,320,640,320C586.7,320,533,320,480,320C426.7,320,373,320,320,320C266.7,320,213,320,160,320C106.7,320,53,320,27,320L0,320Z"></path></svg>